<svg width="20" height="17" viewBox="0 0 20 17" fill="none" xmlns="http://www.w3.org/2000/svg">
<path d="M19.5561 9.38668C19.5378 9.69019 19.3399 9.95292 19.0537 10.0552L1.53291 16.2907C1.23912 16.3953 0.911362 16.3094 0.706696 16.0741C0.501806 15.839 0.46183 15.5026 0.605897 15.2259L4.14305 8.42768L1.43923 1.28826C1.32859 0.996321 1.40839 0.666187 1.64006 0.456926C1.66952 0.430383 1.70088 0.406255 1.73345 0.38495C1.95665 0.238937 2.24371 0.219695 2.48724 0.341652L19.1384 8.66211C19.41 8.79803 19.5746 9.08337 19.5561 9.38668ZM3.54467 2.56544L5.50786 7.74935L8.69731 7.9413C9.11543 7.96623 9.43386 8.32558 9.40868 8.74381C9.38365 9.16227 9.02413 9.47995 8.60616 9.45519L5.41815 9.26354L2.8419 14.2145L16.8674 9.22305L3.54467 2.56544Z" fill="white"/>
</svg>
