<svg width="18" height="18" viewBox="0 0 18 18" fill="none" xmlns="http://www.w3.org/2000/svg">
<path d="M4.75181 1.61057L2.93376 1.81258C2.00406 1.91588 1.28865 2.65641 1.42635 3.58164C1.69689 5.39943 2.67768 8.56124 6.05759 11.9411C9.43744 15.321 12.5996 16.3022 14.4177 16.5731C15.3431 16.7109 16.0839 15.9955 16.1872 15.0656L16.3892 13.2479C16.4772 12.4553 16.086 11.6861 15.3935 11.2905L14.19 10.603C13.4087 10.1566 12.4254 10.2884 11.7892 10.9246C11.3174 11.3964 10.6355 11.5955 10.0466 11.282C9.53744 11.0111 8.8728 10.5661 8.15323 9.84652C7.43366 9.12695 6.98869 8.4623 6.71771 7.95317C6.40424 7.3642 6.60336 6.68234 7.07513 6.21057C7.71136 5.57434 7.84311 4.59102 7.39679 3.80975L6.70928 2.60627C6.31368 1.91377 5.54447 1.5225 4.75181 1.61057Z" stroke="white" stroke-width="1.5" stroke-linecap="round" stroke-linejoin="round"/>
</svg>
