<svg width="110" height="25" viewBox="0 0 110 25" fill="none" xmlns="http://www.w3.org/2000/svg">
<path d="M37.836 4.26999H39.6533L34.4199 19.3783H32.7515L27.5479 4.26999H29.3354L32.6721 14.0459C33.0561 15.1689 33.3606 16.2609 33.5857 17.3218C33.824 16.2058 34.1352 15.0931 34.5192 13.9839L37.836 4.26999Z" fill="#929395"/>
<path d="M52.1933 19.3783H44.0999V4.26999H52.1933V5.83042H45.7881V10.6977H51.806V12.2478H45.7881V17.8075H52.1933V19.3783Z" fill="#929395"/>
<path d="M59.5496 13.0952V19.3783H57.8614V4.26999H61.8435C63.6244 4.26999 64.9386 4.62479 65.786 5.33439C66.6401 6.04399 67.0671 7.11184 67.0671 8.53793C67.0671 10.5358 66.0939 11.8861 64.1475 12.5889L68.0899 19.3783H66.0939L62.5784 13.0952H59.5496ZM59.5496 11.5865H61.8634C63.0551 11.5865 63.929 11.3419 64.4851 10.8527C65.0412 10.3567 65.3193 9.61611 65.3193 8.63093C65.3193 7.63198 65.0346 6.91205 64.4652 6.47113C63.9025 6.03021 62.9955 5.80975 61.7442 5.80975H59.5496V11.5865Z" fill="#929395"/>
<path d="M77.3429 19.3783H75.6547V5.83042H71.0568V4.26999H81.9408V5.83042H77.3429V19.3783Z" fill="#929395"/>
<path d="M94.6695 19.3783H86.576V4.26999H94.6695V5.83042H88.2642V10.6977H94.2822V12.2478H88.2642V17.8075H94.6695V19.3783Z" fill="#929395"/>
<path d="M110 19.3783H108.083L104.181 12.7335L100.208 19.3783H98.4209L103.247 11.4831L98.7486 4.26999H100.616L104.22 10.2534L107.855 4.26999H109.652L105.154 11.4211L110 19.3783Z" fill="#929395"/>
<path d="M16.7774 11.9326L19.6152 10.119L16.6414 5.16499L13.8703 0L8.27734 10.0807L11.3596 11.9326L13.8703 7.40741L16.7774 11.9326Z" fill="#E71B20"/>
<path d="M16.3619 25H27.7408L21.7007 14.0751L19.0655 16.0565L21.5762 21.2963H16.3619V25Z" fill="#8E9396"/>
<path d="M0 25H11.7859V21.2963H6.16464L9.07174 16.0565L5.98944 14.2046L0 25Z" fill="#8E9396"/>
</svg>
