<svg width="268" height="59" viewBox="0 0 268 59" fill="none" xmlns="http://www.w3.org/2000/svg">
<path d="M92.1822 9.99707H96.6099L83.8593 45.3697H79.7946L67.1166 9.99707H71.4716L79.601 32.8852C80.5365 35.5144 81.2785 38.0709 81.8269 40.5549C82.4076 37.9419 83.1657 35.3369 84.1012 32.74L92.1822 9.99707Z" fill="white" fill-opacity="0.7"/>
<path d="M127.162 45.3697H107.443V9.99707H127.162V13.6505H111.556V25.0461H126.218V28.6753H111.556V41.6921H127.162V45.3697Z" fill="white" fill-opacity="0.7"/>
<path d="M145.084 30.6593V45.3697H140.971V9.99707H150.673C155.012 9.99707 158.214 10.8278 160.279 12.4891C162.359 14.1505 163.4 16.6506 163.4 19.9895C163.4 24.6671 161.029 27.8285 156.286 29.4738L165.892 45.3697H161.029L152.464 30.6593H145.084ZM145.084 27.1269H150.722C153.625 27.1269 155.754 26.5543 157.109 25.4091C158.464 24.2477 159.141 22.5138 159.141 20.2072C159.141 17.8684 158.448 16.1828 157.061 15.1505C155.69 14.1182 153.48 13.6021 150.431 13.6021H145.084V27.1269Z" fill="white" fill-opacity="0.7"/>
<path d="M188.435 45.3697H184.322V13.6505H173.12V9.99707H199.637V13.6505H188.435V45.3697Z" fill="white" fill-opacity="0.7"/>
<path d="M230.649 45.3697H210.931V9.99707H230.649V13.6505H215.044V25.0461H229.706V28.6753H215.044V41.6921H230.649V45.3697Z" fill="white" fill-opacity="0.7"/>
<path d="M268 45.3697H263.33L253.822 29.8125L244.144 45.3697H239.789L251.548 26.8849L240.587 9.99707H245.136L253.919 24.0058L262.774 9.99707H267.153L256.193 26.7398L268 45.3697Z" fill="white" fill-opacity="0.7"/>
<path opacity="0.7" d="M40.8761 27.9374L47.7901 23.6914L40.5448 12.0926L33.7933 0L20.1669 23.6017L27.6765 27.9374L33.7933 17.3427L40.8761 27.9374Z" fill="#E71B20"/>
<path d="M39.8636 58.5317H67.5866L52.8707 32.9536L46.4506 37.5926L52.5674 49.8603H39.8636V58.5317Z" fill="white" fill-opacity="0.7"/>
<path d="M0 58.5317H28.7147V49.8603H15.0193L22.102 37.5926L14.5924 33.2569L0 58.5317Z" fill="white" fill-opacity="0.7"/>
</svg>
