<svg width="181" height="41" viewBox="0 0 181 41" fill="none" xmlns="http://www.w3.org/2000/svg">
<path d="M62.2574 7.00281H65.2477L56.6363 31.7804H53.8911L45.3287 7.00281H48.27L53.7604 23.0354C54.3922 24.877 54.8933 26.6679 55.2637 28.4078C55.6559 26.5775 56.1679 24.7528 56.7997 22.9337L62.2574 7.00281Z" fill="#929395"/>
<path d="M85.8818 31.7804H72.5643V7.00281H85.8818V9.56192H75.3422V17.5443H85.2445V20.0865H75.3422V29.2044H85.8818V31.7804Z" fill="#929395"/>
<path d="M97.9861 21.4762V31.7804H95.2082V7.00281H101.761C104.691 7.00281 106.854 7.58468 108.248 8.74843C109.653 9.91217 110.356 11.6634 110.356 14.0022C110.356 17.2788 108.754 19.4933 105.552 20.6457L112.039 31.7804H108.754L102.97 21.4762H97.9861ZM97.9861 19.0018H101.793C103.754 19.0018 105.192 18.6007 106.107 17.7985C107.022 16.985 107.48 15.7704 107.48 14.1548C107.48 12.5165 107.011 11.3358 106.075 10.6127C105.149 9.88958 103.656 9.52802 101.597 9.52802H97.9861V19.0018Z" fill="#929395"/>
<path d="M127.264 31.7804H124.486V9.56192H116.921V7.00281H134.83V9.56192H127.264V31.7804Z" fill="#929395"/>
<path d="M155.774 31.7804H142.457V7.00281H155.774V9.56192H145.235V17.5443H155.137V20.0865H145.235V29.2044H155.774V31.7804Z" fill="#929395"/>
<path d="M181 31.7804H177.846L171.425 20.883L164.888 31.7804H161.947L169.889 18.8323L162.486 7.00281H165.558L171.49 16.8156L177.471 7.00281H180.428L173.026 18.7307L181 31.7804Z" fill="#929395"/>
<path d="M27.6065 19.5695L32.276 16.5952L27.3827 8.47058L22.8229 0L13.62 16.5324L18.6918 19.5695L22.8229 12.1481L27.6065 19.5695Z" fill="#E71B20"/>
<path d="M26.9228 41H45.6462L35.7074 23.0832L31.3715 26.3327L35.5026 34.9259H26.9228V41Z" fill="#8E9396"/>
<path d="M0 41H19.3932V34.9259H10.1436L14.9271 26.3327L9.85535 23.2957L0 41Z" fill="#8E9396"/>
</svg>
