<svg width="29" height="19" viewBox="0 0 29 19" fill="none" xmlns="http://www.w3.org/2000/svg">
<path d="M19.0815 0C17.2265 0 15.5003 0.561592 14.0636 1.52297C12.6267 0.561592 10.9007 0 9.04578 0C4.05797 0 0 4.05754 0 9.04492C0 14.0323 4.05797 18.0898 9.04578 18.0898C10.9007 18.0898 12.6269 17.5283 14.0636 16.5669C15.5006 17.5283 17.2265 18.0898 19.0815 18.0898C24.0693 18.0898 28.1273 14.0323 28.1273 9.04492C28.1273 4.05754 24.0693 0 19.0815 0V0ZM19.0815 16.4418C16.3879 16.4418 14.0261 14.9945 12.7325 12.8372H13.6832C14.1383 12.8372 14.5072 12.4683 14.5072 12.0132C14.5072 11.5582 14.1383 11.1891 13.6832 11.1891H12.0012C11.8995 10.8539 11.8207 10.5091 11.767 10.1557H15.0018C15.4568 10.1557 15.8259 9.78677 15.8259 9.33162C15.8259 8.87668 15.4568 8.50758 15.0018 8.50758H11.7033C11.7286 8.15586 11.7791 7.81079 11.8522 7.47431H13.6832C14.1383 7.47431 14.5072 7.10521 14.5072 6.65027C14.5072 6.19511 14.1383 5.82623 13.6832 5.82623H12.4218C13.6209 3.35561 16.1555 1.64808 19.0815 1.64808C23.1605 1.64808 26.4792 4.96635 26.4792 9.04492C26.4792 13.1235 23.1605 16.4418 19.0815 16.4418V16.4418Z" fill="#F4F6F8"/>
</svg>
