<svg width="39" height="12" viewBox="0 0 39 12" fill="none" xmlns="http://www.w3.org/2000/svg">
<g clip-path="url(#clip0_54:22)">
<path d="M21.2579 1.51539L18.8483 6.75674H18.6074V0.373047H15.1804V11.1783H18.0853C18.8483 11.1783 19.5444 10.7348 19.8657 10.0359L22.2753 4.79459H22.5163V11.1783H25.9432V0.373047H23.0383C22.2619 0.373047 21.5792 0.816545 21.2579 1.51539Z" fill="#F4F6F8"/>
<path d="M8.40677 1.79762L6.9744 6.77018H6.73345L5.30108 1.79762C5.06012 0.950939 4.29709 0.373047 3.42696 0.373047H0V11.1783H3.42696V4.79459H3.66792L5.62236 11.1783H8.0721L10.0265 4.79459H10.2675V11.1783H13.6945V0.373047H10.2809C9.41076 0.373047 8.64773 0.950939 8.40677 1.79762Z" fill="#F4F6F8"/>
<path d="M27.4023 5.292V11.1919H30.8159V7.73797H34.4972C36.0902 7.73797 37.4557 6.71657 37.951 5.27856H27.4023V5.292Z" fill="#F4F6F8"/>
<path d="M34.5106 0.373047H26.9204C27.3756 2.88621 29.571 4.79459 32.2081 4.79459H38.0982C38.1517 4.55268 38.1651 4.31078 38.1651 4.05543C38.1785 2.02609 36.532 0.373047 34.5106 0.373047Z" fill="#F4F6F8"/>
</g>
<defs>
<clipPath id="clip0_54:22">
<rect width="38.1785" height="10.8052" fill="white" transform="translate(0 0.373047)"/>
</clipPath>
</defs>
</svg>
