<svg width="43" height="14" viewBox="0 0 43 14" fill="none" xmlns="http://www.w3.org/2000/svg">
<path d="M16.8935 0.976562L14.7493 13.1783H18.1786L20.3246 0.976562H16.8935Z" fill="#F4F6F8"/>
<path d="M11.8737 0.989871L8.51495 9.31108L8.15685 8.05464C7.49445 6.54076 5.61396 4.36659 3.40625 2.9964L6.47747 13.1719L10.1061 13.1659L15.5068 0.987305L11.8737 0.989871Z" fill="#F4F6F8"/>
<path d="M6.85512 1.86336C6.65578 1.12011 6.07805 0.898585 5.36096 0.87207H0.0441014L0 1.11498C4.13759 2.08831 6.8754 4.43354 8.01146 7.25346L6.85512 1.86336Z" fill="#F4F6F8"/>
<path d="M27.2751 3.31539C28.397 3.29829 29.2102 3.53606 29.8418 3.78239L30.1514 3.92351L30.6153 1.27893C29.9362 1.03174 28.8716 0.766602 27.5432 0.766602C24.1545 0.766602 21.7659 2.4216 21.7474 4.79335C21.7254 6.54586 23.4488 7.52432 24.7507 8.10849C26.087 8.7072 26.5351 9.08781 26.5289 9.62237C26.5183 10.4392 25.4634 10.8138 24.4782 10.8138C23.1049 10.8138 22.3754 10.6299 21.2491 10.1749L20.8072 9.97989L20.3247 12.7109C21.1274 13.0521 22.6083 13.3455 24.1456 13.3609C27.7505 13.3609 30.0932 11.7256 30.1179 9.1913C30.1328 7.80486 29.2182 6.74686 27.2363 5.87873C26.0367 5.31252 25.3029 4.93619 25.3099 4.36485C25.3099 3.85765 25.9326 3.31539 27.2751 3.31539Z" fill="#F4F6F8"/>
<path d="M39.4159 0.990234H36.7663C35.9434 0.990234 35.3313 1.20748 34.9696 2.00291L29.8777 13.1851H33.479C33.479 13.1851 34.0664 11.6815 34.1996 11.3522C34.5939 11.3522 38.0929 11.3573 38.5912 11.3573C38.6935 11.7833 39.0093 13.1851 39.0093 13.1851H42.1908L39.4159 0.990234ZM35.1866 8.85471C35.4689 8.15422 36.5529 5.44463 36.5529 5.44463C36.5343 5.47799 36.8325 4.73901 37.0098 4.27971L37.2408 5.33173C37.2408 5.33173 37.898 8.24488 38.0356 8.85471H35.1866Z" fill="#F4F6F8"/>
</svg>
